<svg width="24" height="24" viewBox="0 0 24 24" fill="none" xmlns="http://www.w3.org/2000/svg">
<g clip-path="url(#clip0_1142_176)">
<path fill-rule="evenodd" clip-rule="evenodd" d="M5.63191 8.50502C5.4699 8.66722 5.37891 8.8871 5.37891 9.11635C5.37891 9.3456 5.4699 9.56548 5.63191 9.72768L11.3992 15.495C11.5614 15.657 11.7813 15.748 12.0105 15.748C12.2398 15.748 12.4597 15.657 12.6219 15.495L18.3892 9.72768C18.542 9.56369 18.6252 9.34679 18.6212 9.12267C18.6173 8.89855 18.5265 8.68471 18.368 8.52621C18.2095 8.36771 17.9957 8.27692 17.7715 8.27297C17.5474 8.26901 17.3305 8.3522 17.1665 8.50502L12.0105 13.661L6.85458 8.50502C6.69237 8.34301 6.47249 8.25201 6.24324 8.25201C6.01399 8.25201 5.79411 8.34301 5.63191 8.50502Z" fill="#6B7280"/>
</g>
<defs>
<clipPath id="clip0_1142_176">
<rect width="24" height="24" fill="white"/>
</clipPath>
</defs>
</svg>
