<svg width="25" height="25" viewBox="0 0 25 25" fill="none" xmlns="http://www.w3.org/2000/svg">
<path d="M10.7 5C12.0791 5 13.4018 5.58699 14.377 6.63183C15.3521 7.67668 15.9 9.09379 15.9 10.5714C15.9 11.9514 15.428 13.22 14.652 14.1971L14.868 14.4286H15.5L19.5 18.7143L18.3 20L14.3 15.7143V15.0371L14.084 14.8057C13.172 15.6371 11.988 16.1429 10.7 16.1429C9.32087 16.1429 7.99823 15.5559 7.02304 14.511C6.04786 13.4662 5.5 12.0491 5.5 10.5714C5.5 9.09379 6.04786 7.67668 7.02304 6.63183C7.99823 5.58699 9.32087 5 10.7 5ZM10.7 6.71429C8.7 6.71429 7.1 8.42857 7.1 10.5714C7.1 12.7143 8.7 14.4286 10.7 14.4286C12.7 14.4286 14.3 12.7143 14.3 10.5714C14.3 8.42857 12.7 6.71429 10.7 6.71429Z" fill="currentColor"/>
</svg>
