<svg width="20" height="20" viewBox="0 0 20 20" fill="none" xmlns="http://www.w3.org/2000/svg">
<path d="M9.99998 14.1666C10.442 14.1666 10.8659 13.9911 11.1785 13.6785C11.4911 13.3659 11.6666 12.942 11.6666 12.5C11.6666 11.575 10.9166 10.8333 9.99998 10.8333C9.55795 10.8333 9.13403 11.0089 8.82147 11.3215C8.50891 11.634 8.33331 12.058 8.33331 12.5C8.33331 12.942 8.50891 13.3659 8.82147 13.6785C9.13403 13.9911 9.55795 14.1666 9.99998 14.1666ZM15 6.66665C15.442 6.66665 15.8659 6.84224 16.1785 7.1548C16.4911 7.46736 16.6666 7.89129 16.6666 8.33331V16.6666C16.6666 17.1087 16.4911 17.5326 16.1785 17.8452C15.8659 18.1577 15.442 18.3333 15 18.3333H4.99998C4.55795 18.3333 4.13403 18.1577 3.82147 17.8452C3.50891 17.5326 3.33331 17.1087 3.33331 16.6666V8.33331C3.33331 7.40831 4.08331 6.66665 4.99998 6.66665H5.83331V4.99998C5.83331 3.89491 6.2723 2.8351 7.0537 2.0537C7.8351 1.2723 8.89491 0.833313 9.99998 0.833313C10.5472 0.833313 11.089 0.941087 11.5945 1.15048C12.1 1.35988 12.5593 1.66679 12.9463 2.0537C13.3332 2.44061 13.6401 2.89994 13.8495 3.40547C14.0589 3.91099 14.1666 4.45281 14.1666 4.99998V6.66665H15ZM9.99998 2.49998C9.33694 2.49998 8.70105 2.76337 8.23221 3.23221C7.76337 3.70105 7.49998 4.33694 7.49998 4.99998V6.66665H12.5V4.99998C12.5 4.33694 12.2366 3.70105 11.7677 3.23221C11.2989 2.76337 10.663 2.49998 9.99998 2.49998Z" fill="#9899A1"/>
</svg>
