<svg width="20" height="20" viewBox="0 0 20 20" fill="none" xmlns="http://www.w3.org/2000/svg">
<path d="M9.99998 3.33331C10.884 3.33331 11.7319 3.6845 12.357 4.30962C12.9821 4.93474 13.3333 5.78259 13.3333 6.66665C13.3333 7.5507 12.9821 8.39855 12.357 9.02367C11.7319 9.64879 10.884 9.99998 9.99998 9.99998C9.11592 9.99998 8.26808 9.64879 7.64296 9.02367C7.01784 8.39855 6.66665 7.5507 6.66665 6.66665C6.66665 5.78259 7.01784 4.93474 7.64296 4.30962C8.26808 3.6845 9.11592 3.33331 9.99998 3.33331ZM9.99998 11.6666C13.6833 11.6666 16.6666 13.1583 16.6666 15V16.6666H3.33331V15C3.33331 13.1583 6.31665 11.6666 9.99998 11.6666Z" fill="#9899A1"/>
</svg>
