<svg width="18" height="18" viewBox="0 0 18 18" fill="none" xmlns="http://www.w3.org/2000/svg">
<path d="M7.66667 2V3.54632L9 4.45632V3.36842H15.6667V13.6316H12.3333V15H17V2H7.66667ZM6 4.05263L1 7.47368V15H11V7.47368L6 4.05263ZM10.3333 4.73684V5.37316L11.4067 6.10526H11.6667V4.73684H10.3333ZM13 4.73684V6.10526H14.3333V4.73684H13ZM6 5.76316L9.66667 8.15789V13.6316H7.66667V9.52632H4.33333V13.6316H2.33333V8.15789L6 5.76316ZM13 7.47368V8.84211H14.3333V7.47368H13ZM13 10.2105V11.5789H14.3333V10.2105H13Z" fill="#9CA0A6"/>
</svg>
