<svg width="18" height="18" viewBox="0 0 18 18" fill="none" xmlns="http://www.w3.org/2000/svg">
<path d="M9 0.75L2.25 3.75V8.25C2.25 12.4125 5.13 16.305 9 17.25C12.87 16.305 15.75 12.4125 15.75 8.25V3.75L9 0.75ZM9 2.385L14.25 4.725V8.415C14.25 9.69 13.875 10.9875 13.2375 12.1275C12 11.205 9.945 10.875 9 10.875C8.055 10.875 6 11.205 4.7625 12.1275C4.125 10.9875 3.75 9.69 3.75 8.415V4.725L9 2.385ZM9 4.5C8.30381 4.5 7.63613 4.77656 7.14384 5.26884C6.65156 5.76113 6.375 6.42881 6.375 7.125C6.375 7.82119 6.65156 8.48887 7.14384 8.98116C7.63613 9.47344 8.30381 9.75 9 9.75C9.69619 9.75 10.3639 9.47344 10.8562 8.98116C11.3484 8.48887 11.625 7.82119 11.625 7.125C11.625 6.42881 11.3484 5.76113 10.8562 5.26884C10.3639 4.77656 9.69619 4.5 9 4.5ZM9 6C9.29837 6 9.58452 6.11853 9.7955 6.3295C10.0065 6.54048 10.125 6.82663 10.125 7.125C10.125 7.42337 10.0065 7.70952 9.7955 7.9205C9.58452 8.13147 9.29837 8.25 9 8.25C8.70163 8.25 8.41548 8.13147 8.2045 7.9205C7.99353 7.70952 7.875 7.42337 7.875 7.125C7.875 6.82663 7.99353 6.54048 8.2045 6.3295C8.41548 6.11853 8.70163 6 9 6ZM9 12.375C10.1775 12.375 11.73 12.8325 12.3975 13.38C11.4675 14.535 10.275 15.4125 9 15.75C7.725 15.4125 6.5325 14.535 5.6025 13.38C6.2775 12.8325 7.8225 12.375 9 12.375Z" fill="#9CA0A6"/>
</svg>
