<svg width="18" height="18" viewBox="0 0 18 18" fill="none" xmlns="http://www.w3.org/2000/svg">
<path d="M2.87998 2.565C3.16498 2.355 3.47248 2.25 3.79498 2.25H14.205C14.535 2.25 14.8275 2.355 15.0975 2.565C15.375 2.775 15.5475 3.045 15.645 3.375L16.4175 6.6825C16.605 7.5 16.455 8.2125 15.96 8.8275C15.9225 8.865 15.885 8.9025 15.8475 8.94L15.75 9.045C15.3225 9.4875 14.82 9.75 14.1075 9.75C13.395 9.75 12.8325 9.465 12.405 9.0375C11.9325 9.5025 11.3775 9.75 10.725 9.75C10.0875 9.75 9.50998 9.525 8.99998 9.0525C8.57998 9.4725 7.97998 9.75 7.34998 9.75C6.64498 9.75 6.07498 9.5025 5.60248 9.0375C5.18248 9.4425 4.61998 9.75 3.91498 9.75C3.86248 9.75 3.80248 9.75 3.74998 9.75V14.25H9.05998C9.14998 14.79 9.33748 15.2925 9.59998 15.75H3.74998C3.37498 15.75 2.99998 15.585 2.70748 15.2925C2.41498 15 2.24998 14.625 2.24998 14.25V9.0225C2.17498 8.955 2.09998 8.88 2.01748 8.7975C1.54498 8.19 1.39498 7.5 1.58248 6.6825L2.35498 3.375C2.42998 3.045 2.59498 2.775 2.87998 2.565ZM14.9775 7.035L14.1675 3.7275L12.7275 3.75L13.185 7.38C13.2075 7.62 13.2975 7.8225 13.4625 7.995C13.6275 8.175 13.83 8.25 14.0625 8.25C14.3475 8.25 14.58 8.145 14.7675 7.9125C14.9775 7.65 15.045 7.3575 14.9775 7.035ZM5.27248 3.75H3.79498L3.02248 7.035C2.95498 7.3575 3.02248 7.65 3.23248 7.9125C3.39748 8.145 3.62998 8.25 3.93748 8.25C4.43248 8.25 4.72498 7.9725 4.81498 7.38M8.24998 3.75H6.78748L6.37498 7.125V7.245C6.37498 7.5 6.45748 7.725 6.62998 7.9425C6.80248 8.16 7.01998 8.25 7.27498 8.25C7.55998 8.25 7.79248 8.16 7.97998 7.965C8.16748 7.7625 8.24998 7.5375 8.24998 7.275M11.2125 3.75H9.74998V7.275C9.74998 7.5375 9.83248 7.7625 10.02 7.965C10.2075 8.16 10.4175 8.25 10.65 8.25C10.9575 8.25 11.2125 8.1525 11.4075 7.9275C11.625 7.7025 11.685 7.44 11.625 7.125M14.25 10.5H12.75V12.75H10.5V14.25H12.75V16.5H14.25V14.25H16.5V12.75H14.25V10.5Z" fill="#9CA0A6"/>
</svg>
