<svg width="18" height="18" viewBox="0 0 18 18" fill="none" xmlns="http://www.w3.org/2000/svg">
<path d="M9 6C9.79565 6 10.5587 6.31607 11.1213 6.87868C11.6839 7.44129 12 8.20435 12 9C12 9.79565 11.6839 10.5587 11.1213 11.1213C10.5587 11.6839 9.79565 12 9 12C8.20435 12 7.44129 11.6839 6.87868 11.1213C6.31607 10.5587 6 9.79565 6 9C6 8.20435 6.31607 7.44129 6.87868 6.87868C7.44129 6.31607 8.20435 6 9 6ZM9 7.5C8.60218 7.5 8.22065 7.65804 7.93934 7.93934C7.65804 8.22064 7.5 8.60218 7.5 9C7.5 9.39782 7.65804 9.77936 7.93934 10.0607C8.22065 10.342 8.60218 10.5 9 10.5C9.39783 10.5 9.77936 10.342 10.0607 10.0607C10.342 9.77936 10.5 9.39782 10.5 9C10.5 8.60218 10.342 8.22064 10.0607 7.93934C9.77936 7.65804 9.39783 7.5 9 7.5ZM7.5 16.5C7.3125 16.5 7.155 16.365 7.125 16.185L6.8475 14.1975C6.375 14.01 5.97 13.755 5.58 13.455L3.7125 14.2125C3.5475 14.2725 3.345 14.2125 3.255 14.0475L1.755 11.4525C1.6575 11.2875 1.7025 11.085 1.845 10.9725L3.4275 9.7275L3.375 9L3.4275 8.25L1.845 7.0275C1.7025 6.915 1.6575 6.7125 1.755 6.5475L3.255 3.9525C3.345 3.7875 3.5475 3.72 3.7125 3.7875L5.58 4.5375C5.97 4.245 6.375 3.99 6.8475 3.8025L7.125 1.815C7.155 1.635 7.3125 1.5 7.5 1.5H10.5C10.6875 1.5 10.845 1.635 10.875 1.815L11.1525 3.8025C11.625 3.99 12.03 4.245 12.42 4.5375L14.2875 3.7875C14.4525 3.72 14.655 3.7875 14.745 3.9525L16.245 6.5475C16.3425 6.7125 16.2975 6.915 16.155 7.0275L14.5725 8.25L14.625 9L14.5725 9.75L16.155 10.9725C16.2975 11.085 16.3425 11.2875 16.245 11.4525L14.745 14.0475C14.655 14.2125 14.4525 14.28 14.2875 14.2125L12.42 13.4625C12.03 13.755 11.625 14.01 11.1525 14.1975L10.875 16.185C10.845 16.365 10.6875 16.5 10.5 16.5H7.5ZM8.4375 3L8.16 4.9575C7.26 5.145 6.465 5.625 5.8875 6.2925L4.08 5.5125L3.5175 6.4875L5.1 7.65C4.8 8.5275 4.8 9.48 5.1 10.35L3.51 11.52L4.0725 12.495L5.895 11.715C6.4725 12.375 7.26 12.855 8.1525 13.035L8.43 15H9.57L9.8475 13.0425C10.74 12.855 11.5275 12.375 12.105 11.715L13.9275 12.495L14.49 11.52L12.9 10.3575C13.2 9.48 13.2 8.5275 12.9 7.65L14.4825 6.4875L13.92 5.5125L12.1125 6.2925C11.535 5.625 10.74 5.145 9.84 4.965L9.5625 3H8.4375Z" fill="#4B92FF"/>
</svg>
