<svg width="24" height="24" viewBox="0 0 24 24" fill="none" xmlns="http://www.w3.org/2000/svg">
<g clip-path="url(#clip0_1596_8690)">
<path opacity="0.2" d="M17.625 12C17.625 12.663 17.8884 13.2989 18.3572 13.7678C18.8261 14.2366 19.462 14.5 20.125 14.5V17C20.125 17.1658 20.0592 17.3247 19.9419 17.4419C19.8247 17.5592 19.6658 17.625 19.5 17.625H9.5V6.375H19.5C19.6658 6.375 19.8247 6.44085 19.9419 6.55806C20.0592 6.67527 20.125 6.83424 20.125 7V9.5C19.462 9.5 18.8261 9.76339 18.3572 10.2322C17.8884 10.7011 17.625 11.337 17.625 12Z" fill="#4F46E5"/>
<path d="M20.125 10.125C20.2908 10.125 20.4497 10.0592 20.5669 9.94194C20.6842 9.82473 20.75 9.66576 20.75 9.5V7C20.75 6.66848 20.6183 6.35054 20.3839 6.11612C20.1495 5.8817 19.8315 5.75 19.5 5.75H4.5C4.16848 5.75 3.85054 5.8817 3.61612 6.11612C3.3817 6.35054 3.25 6.66848 3.25 7V9.5C3.25 9.66576 3.31585 9.82473 3.43306 9.94194C3.55027 10.0592 3.70924 10.125 3.875 10.125C4.37228 10.125 4.84919 10.3225 5.20083 10.6742C5.55246 11.0258 5.75 11.5027 5.75 12C5.75 12.4973 5.55246 12.9742 5.20083 13.3258C4.84919 13.6775 4.37228 13.875 3.875 13.875C3.70924 13.875 3.55027 13.9408 3.43306 14.0581C3.31585 14.1753 3.25 14.3342 3.25 14.5V17C3.25 17.3315 3.3817 17.6495 3.61612 17.8839C3.85054 18.1183 4.16848 18.25 4.5 18.25H19.5C19.8315 18.25 20.1495 18.1183 20.3839 17.8839C20.6183 17.6495 20.75 17.3315 20.75 17V14.5C20.75 14.3342 20.6842 14.1753 20.5669 14.0581C20.4497 13.9408 20.2908 13.875 20.125 13.875C19.6277 13.875 19.1508 13.6775 18.7992 13.3258C18.4475 12.9742 18.25 12.4973 18.25 12C18.25 11.5027 18.4475 11.0258 18.7992 10.6742C19.1508 10.3225 19.6277 10.125 20.125 10.125ZM4.5 15.0625C5.20643 14.9191 5.84155 14.5358 6.29774 13.9777C6.75393 13.4195 7.00313 12.7208 7.00313 12C7.00313 11.2792 6.75393 10.5805 6.29774 10.0223C5.84155 9.46421 5.20643 9.08095 4.5 8.9375V7H8.875V17H4.5V15.0625ZM19.5 15.0625V17H10.125V7H19.5V8.9375C18.7936 9.08095 18.1585 9.46421 17.7023 10.0223C17.2461 10.5805 16.9969 11.2792 16.9969 12C16.9969 12.7208 17.2461 13.4195 17.7023 13.9777C18.1585 14.5358 18.7936 14.9191 19.5 15.0625Z" fill="#4F46E5"/>
</g>
<defs>
<clipPath id="clip0_1596_8690">
<rect width="24" height="24" fill="white"/>
</clipPath>
</defs>
</svg>
