<svg width="168" height="31" viewBox="0 0 168 31" fill="none" xmlns="http://www.w3.org/2000/svg">
<path d="M7.1582 10.1064C7.05609 10.7226 7 11.3549 7 12C7 12.6834 7.06246 13.3523 7.17676 14.0029C5.56294 15.0783 4.5 16.9152 4.5 19C4.5 22.3137 7.18629 25 10.5 25C12.2966 25 13.9072 24.2091 15.0068 22.958C16.1086 23.3089 17.2819 23.5 18.5 23.5C18.6245 23.5 18.7485 23.4942 18.8721 23.4902C17.2695 26.472 14.1222 28.5 10.5 28.5C5.25329 28.5 1 24.2467 1 19C1 14.9296 3.56055 11.4589 7.1582 10.1064Z" fill="#38F200"/>
<path d="M24.5 12C24.5 8.68629 21.8137 6 18.5 6C15.1863 6 12.5 8.68629 12.5 12C12.5 15.3137 15.1863 18 18.5 18V21.5C13.2533 21.5 9 17.2467 9 12C9 6.75329 13.2533 2.5 18.5 2.5C23.7467 2.5 28 6.75329 28 12C28 17.2467 23.7467 21.5 18.5 21.5V18C21.8137 18 24.5 15.3137 24.5 12Z" fill="#FFCC00"/>
<path d="M38.8057 9.85156V6.82422H53.2832V9.85156H47.8633V24.5H44.2256V9.85156H38.8057ZM59.0938 16.834V24.5H55.4805V6.82422H58.9961V13.5625H59.1426C59.7529 12.0244 61.0957 11.0723 63.0977 11.0723C65.8564 11.0723 67.6875 12.9277 67.6875 16.0527V24.5H64.0742V16.6875C64.0742 15.0518 63.1953 14.0752 61.6816 14.0752C60.168 14.0752 59.0938 15.0762 59.0938 16.834ZM76.4766 24.7686C72.4238 24.7686 69.9336 22.1318 69.9336 17.9326C69.9336 13.8311 72.4482 11.0723 76.3301 11.0723C79.8213 11.0723 82.5557 13.2695 82.5557 17.7861V18.8115H73.498C73.498 20.8135 74.6943 22.0586 76.5498 22.0586C77.7705 22.0586 78.6494 21.5215 79.0156 20.7158H82.458C81.9453 23.1572 79.748 24.7686 76.4766 24.7686ZM73.498 16.541H79.1377C79.1377 14.9297 78.0146 13.7822 76.4033 13.7822C74.7432 13.7822 73.5591 15.0151 73.498 16.541ZM91.8818 11.2432V13.9531H89.2451V24.5H85.6318V13.9531H83.752V11.2432H85.6318V10.2422C85.6318 7.45898 87.3164 5.99414 89.9775 5.99414C90.8076 5.99414 91.4912 6.06738 92.126 6.21387V8.94824C91.6133 8.89941 91.2227 8.875 91.0273 8.875C89.8555 8.875 89.2451 9.33887 89.2451 10.4375V11.2432H91.8818ZM99.4746 24.7686C95.4707 24.7686 92.9805 22.0098 92.9805 17.9082C92.9805 13.8066 95.4707 11.0723 99.4746 11.0723C103.479 11.0723 105.993 13.8066 105.993 17.9082C105.993 22.0098 103.479 24.7686 99.4746 24.7686ZM99.499 21.9609C101.354 21.9609 102.307 20.2275 102.307 17.9082C102.307 15.5645 101.354 13.8311 99.499 13.8311C97.6191 13.8311 96.6426 15.5645 96.6426 17.9082C96.6426 20.2275 97.6191 21.9609 99.499 21.9609ZM108.264 24.5V11.2432H111.755V13.5381H111.901C112.39 11.9023 113.61 11.0479 115.1 11.0479C115.466 11.0479 115.93 11.0967 116.247 11.1699V14.3926C115.905 14.2949 115.222 14.1973 114.709 14.1973C113.073 14.1973 111.877 15.3447 111.877 16.9561V24.5H108.264ZM118.005 24.5V11.2432H121.447V13.5625H121.594C122.155 12.0244 123.498 11.0723 125.28 11.0723C127.111 11.0723 128.454 12.0244 128.894 13.5625H129.016C129.577 12.0488 131.066 11.0723 133.02 11.0723C135.485 11.0723 137.194 12.708 137.194 15.5889V24.5H133.581V16.2969C133.581 14.7832 132.702 14.0508 131.506 14.0508C130.139 14.0508 129.357 15.0029 129.357 16.3945V24.5H125.842V16.1992C125.842 14.8809 125.012 14.0508 123.791 14.0508C122.57 14.0508 121.618 15.0273 121.618 16.541V24.5H118.005ZM143.591 16.834V24.5H139.978V11.2432H143.42V13.5625H143.566C144.177 12.0244 145.593 11.0723 147.546 11.0723C150.305 11.0723 152.136 12.9521 152.111 16.0527V24.5H148.522V16.6875C148.522 15.0518 147.619 14.0752 146.13 14.0752C144.616 14.0752 143.591 15.0762 143.591 16.834ZM154.284 20.7891C154.284 17.835 156.677 16.8584 159.216 16.7119C160.168 16.6509 161.95 16.5654 162.512 16.541V15.4668C162.487 14.3682 161.73 13.709 160.388 13.709C159.167 13.709 158.386 14.2705 158.19 15.1738H154.748C154.968 12.8789 156.97 11.0723 160.485 11.0723C163.366 11.0723 166.101 12.3662 166.101 15.5645V24.5H162.683V22.6689H162.585C161.926 23.8896 160.681 24.7441 158.703 24.7441C156.164 24.7441 154.284 23.4258 154.284 20.7891ZM157.751 20.6914C157.751 21.7168 158.581 22.2539 159.729 22.2539C161.364 22.2539 162.536 21.1553 162.512 19.7637V18.7871C161.962 18.8115 160.424 18.897 159.802 18.958C158.557 19.0801 157.751 19.666 157.751 20.6914Z" fill="#0F0426"/>
</svg>
