<svg width="168" height="30" viewBox="0 0 168 30" fill="none" xmlns="http://www.w3.org/2000/svg">
<path d="M7.1582 9.60645C7.05609 10.2226 7 10.8549 7 11.5C7 12.1834 7.06246 12.8523 7.17676 13.5029C5.56294 14.5783 4.5 16.4152 4.5 18.5C4.5 21.8137 7.18629 24.5 10.5 24.5C12.2966 24.5 13.9072 23.7091 15.0068 22.458C16.1086 22.8089 17.2819 23 18.5 23C18.6245 23 18.7485 22.9942 18.8721 22.9902C17.2695 25.972 14.1222 28 10.5 28C5.25329 28 1 23.7467 1 18.5C1 14.4296 3.56055 10.9589 7.1582 9.60645Z" fill="#38F200"/>
<path d="M24.5 11.5C24.5 8.18629 21.8137 5.5 18.5 5.5C15.1863 5.5 12.5 8.18629 12.5 11.5C12.5 14.8137 15.1863 17.5 18.5 17.5V21C13.2533 21 9 16.7467 9 11.5C9 6.25329 13.2533 2 18.5 2C23.7467 2 28 6.25329 28 11.5C28 16.7467 23.7467 21 18.5 21V17.5C21.8137 17.5 24.5 14.8137 24.5 11.5Z" fill="#FFCC00"/>
<path d="M38.8057 9.35156V6.32422H53.2832V9.35156H47.8633V24H44.2256V9.35156H38.8057ZM59.0938 16.334V24H55.4805V6.32422H58.9961V13.0625H59.1426C59.7529 11.5244 61.0957 10.5723 63.0977 10.5723C65.8564 10.5723 67.6875 12.4277 67.6875 15.5527V24H64.0742V16.1875C64.0742 14.5518 63.1953 13.5752 61.6816 13.5752C60.168 13.5752 59.0938 14.5762 59.0938 16.334ZM76.4766 24.2686C72.4238 24.2686 69.9336 21.6318 69.9336 17.4326C69.9336 13.3311 72.4482 10.5723 76.3301 10.5723C79.8213 10.5723 82.5557 12.7695 82.5557 17.2861V18.3115H73.498C73.498 20.3135 74.6943 21.5586 76.5498 21.5586C77.7705 21.5586 78.6494 21.0215 79.0156 20.2158H82.458C81.9453 22.6572 79.748 24.2686 76.4766 24.2686ZM73.498 16.041H79.1377C79.1377 14.4297 78.0146 13.2822 76.4033 13.2822C74.7432 13.2822 73.5591 14.5151 73.498 16.041ZM91.8818 10.7432V13.4531H89.2451V24H85.6318V13.4531H83.752V10.7432H85.6318V9.74219C85.6318 6.95898 87.3164 5.49414 89.9775 5.49414C90.8076 5.49414 91.4912 5.56738 92.126 5.71387V8.44824C91.6133 8.39941 91.2227 8.375 91.0273 8.375C89.8555 8.375 89.2451 8.83887 89.2451 9.9375V10.7432H91.8818ZM99.4746 24.2686C95.4707 24.2686 92.9805 21.5098 92.9805 17.4082C92.9805 13.3066 95.4707 10.5723 99.4746 10.5723C103.479 10.5723 105.993 13.3066 105.993 17.4082C105.993 21.5098 103.479 24.2686 99.4746 24.2686ZM99.499 21.4609C101.354 21.4609 102.307 19.7275 102.307 17.4082C102.307 15.0645 101.354 13.3311 99.499 13.3311C97.6191 13.3311 96.6426 15.0645 96.6426 17.4082C96.6426 19.7275 97.6191 21.4609 99.499 21.4609ZM108.264 24V10.7432H111.755V13.0381H111.901C112.39 11.4023 113.61 10.5479 115.1 10.5479C115.466 10.5479 115.93 10.5967 116.247 10.6699V13.8926C115.905 13.7949 115.222 13.6973 114.709 13.6973C113.073 13.6973 111.877 14.8447 111.877 16.4561V24H108.264ZM118.005 24V10.7432H121.447V13.0625H121.594C122.155 11.5244 123.498 10.5723 125.28 10.5723C127.111 10.5723 128.454 11.5244 128.894 13.0625H129.016C129.577 11.5488 131.066 10.5723 133.02 10.5723C135.485 10.5723 137.194 12.208 137.194 15.0889V24H133.581V15.7969C133.581 14.2832 132.702 13.5508 131.506 13.5508C130.139 13.5508 129.357 14.5029 129.357 15.8945V24H125.842V15.6992C125.842 14.3809 125.012 13.5508 123.791 13.5508C122.57 13.5508 121.618 14.5273 121.618 16.041V24H118.005ZM143.591 16.334V24H139.978V10.7432H143.42V13.0625H143.566C144.177 11.5244 145.593 10.5723 147.546 10.5723C150.305 10.5723 152.136 12.4521 152.111 15.5527V24H148.522V16.1875C148.522 14.5518 147.619 13.5752 146.13 13.5752C144.616 13.5752 143.591 14.5762 143.591 16.334ZM154.284 20.2891C154.284 17.335 156.677 16.3584 159.216 16.2119C160.168 16.1509 161.95 16.0654 162.512 16.041V14.9668C162.487 13.8682 161.73 13.209 160.388 13.209C159.167 13.209 158.386 13.7705 158.19 14.6738H154.748C154.968 12.3789 156.97 10.5723 160.485 10.5723C163.366 10.5723 166.101 11.8662 166.101 15.0645V24H162.683V22.1689H162.585C161.926 23.3896 160.681 24.2441 158.703 24.2441C156.164 24.2441 154.284 22.9258 154.284 20.2891ZM157.751 20.1914C157.751 21.2168 158.581 21.7539 159.729 21.7539C161.364 21.7539 162.536 20.6553 162.512 19.2637V18.2871C161.962 18.3115 160.424 18.397 159.802 18.458C158.557 18.5801 157.751 19.166 157.751 20.1914Z" fill="white"/>
</svg>
